<?xml version="1.0" encoding="utf-8"?>
<svg viewBox="36.87730026245117 154.04769897460938 429.2540283203125 205.32904052734375" width="429.2540283203125" height="205.32904052734375" xmlns="http://www.w3.org/2000/svg">
  <g transform="matrix(0.6610610485076904, 0, 0, 0.6610610485076904, -240.3446044921875, 76.11209869384766)">
    <g>
      <title>carpet</title>
      <path d="M 787.6 310.8 C 787.4 301.4 784.2 290.4 774.7 286.3 C 763.4 281.4 754.5 290.8 748.3 299.2 C 737.2 314.4 725.1 329 711.8 342.3 C 706.3 347.8 698.9 354.3 690.8 357.7 C 691 357.7 691.3 357.7 691.5 357.7 C 722.7 355.8 752.7 343.2 783.7 341.1 C 785.4 331.1 787.8 320.8 787.6 310.8 Z" style="fill: rgb(251, 191, 27);"/>
      <path d="M 624.9 307.1 C 619.1 302 611.4 299.2 604 297.3 C 599 296 594 295.2 588.9 295.6 C 588 296.3 587 296.9 586.1 297.7 C 576.1 305.8 571.4 318.9 575.8 330.5 C 573.5 334.5 574.2 340 579.5 341.7 C 590.8 352.1 609 361.7 622.1 350.8 C 623.9 350.4 625.4 349.3 626.6 347.5 C 626.6 347.4 626.6 347.4 626.5 347.4 C 615.8 351.3 609.9 340.5 602.7 334.9 C 598.3 331.5 592.9 330.4 587.7 331.3 C 586.7 329 584.8 327 582.9 325.8 C 583.7 324 584.7 322.2 586.1 320.5 C 590 315.8 595.5 312.9 601.2 311.1 C 610.2 308.3 619.6 309.3 628.6 311.6 C 627.6 309.9 626.4 308.4 624.9 307.1 Z" style="fill: rgb(251, 191, 27);"/>
      <path d="M 1067.7 344.7 C 1065.2 352.6 1055.6 350.3 1050.2 347.6 C 1046.2 345.6 1042.6 343.1 1038.3 341.6 C 1034.9 340.5 1031.2 340.6 1028.2 342 C 1027.2 340.8 1026 339.9 1024.5 339.4 C 1019.9 337.9 1015.1 340.3 1013.2 344.5 C 1005.3 340.4 1003.6 330.7 1003 322.1 C 1002.5 314.3 1001.5 307.1 998.3 300 C 993.5 289.4 983.7 280.5 972.6 276.8 C 962.8 271.4 945.428 271.283 945.858 271.7 C 957.808 283.269 949.13 293.63 949.13 293.63 C 949.13 293.63 944.461 303.174 930.183 299.751 C 928.679 299.391 918.595 298.328 885.126 292.51 C 854.351 287.16 853.455 290.836 843.692 274.376 C 843.539 274.119 823.103 273.951 789.2 275.1 C 788.5 274.9 787.8 274.6 787.2 274.4 C 784 274.5 780.7 274.6 777.5 274.8 C 761.3 276.1 748.9 284.1 738.6 296.3 C 728.9 307.7 721.5 321 711 331.7 C 702.5 340.2 690.9 348.8 678.3 348.1 C 678.2 348.1 678.1 347.9 678.3 347.9 C 693.4 343.8 704.9 335.5 714.5 323.1 C 723.2 311.8 730.3 299.1 740.3 288.9 C 746.5 282.6 753.5 277.5 761.4 274.5 C 755.4 276.1 749.7 278.6 744.5 281.8 C 708 278 670.6 280.4 634.3 283.4 C 619.7 284.6 604.7 286.2 592.1 293.7 C 595.7 293.6 599.4 294.1 603.1 294.9 C 611.1 296.6 619 299 625.7 303.9 C 630.8 307.6 633.6 313.2 636.1 318.9 C 640.8 325.4 644.9 332.6 649.3 338.8 C 653.7 344.9 659 350.3 665.7 353.8 C 671.8 357.1 678.9 357.9 685.9 357.9 C 687.2 357.6 688.6 357.2 690 356.6 C 695.5 354.3 700.4 350.7 704.7 346.7 C 712 339.9 718.8 332.4 725.3 324.8 C 732.7 316.1 739.4 307 746 297.7 C 750.4 291.4 756.2 284 764.2 282.3 C 781.1 278.7 791.2 296.1 791 310.9 C 790.9 321.3 788.7 331.7 787.1 341.9 C 787.1 342.2 787 342.4 787 342.7 C 787 343.6 786.9 344.5 786.9 345.4 C 786.5 356.5 786.9 367 790.5 377.3 C 787.9 379.3 786.5 382.8 786.8 386.2 C 787 389.2 788.8 391.6 791.1 393.1 C 789.6 402.3 795.4 412.3 801.6 418.8 C 809.2 426.8 821.8 428.5 830 420.7 C 830.4 420.3 829.8 419.7 829.3 420 L 829.2 420.1 C 829.1 420 829 420 828.9 420.1 C 824.4 423 821.2 418.6 820.2 414.9 C 819.4 412 819.9 408.7 819.9 405.7 C 819.9 401.6 818.6 397.7 816.6 394.2 C 814.5 390.4 810.9 387.4 806.9 385.5 C 807.1 382.4 806.1 379.1 803.8 377 C 816.1 369.7 829 364.5 843.3 361.5 C 843.6 361.4 843.9 361.3 844 361.1 C 845.5 360.8 847.1 360.4 848.7 360.2 C 866.2 357 884.1 356 901.9 355.8 C 939.1 355.3 976.6 358 1013.3 350.7 C 1013.7 352.4 1014.4 354 1015.7 355.2 C 1019.4 358.9 1025.6 357.7 1028.9 354.1 C 1031.4 355.8 1033.7 358.3 1036 360.1 C 1039.7 362.9 1044.6 363.8 1049.1 363.6 C 1057.3 363.3 1064.3 357.2 1066.7 349.6 C 1066.7 349.5 1066.7 349.5 1066.7 349.4 C 1067.7 348.2 1068.4 346.8 1068.7 345 C 1068.5 344.4 1067.8 344.2 1067.7 344.7 Z" style="fill: rgb(251, 191, 27);"/>
    </g>
    <g transform="matrix(0.987407, 0.15821, -0.15821, 0.987407, 58.207386, -135.303406)">
      <title>person</title>
      <path id="path42" style="fill-opacity: 1; fill-rule: nonzero; stroke: none; fill: rgb(251, 251, 251);" d="M 703.206 289.528 C 700.86 289.528 698.515 288.927 696.387 287.703 L 651.231 261.707 C 644.684 257.937 642.431 249.572 646.202 243.022 C 649.97 236.481 658.337 234.219 664.887 237.993 L 701.801 259.249 L 720.003 244.192 L 702.464 232.502 C 700.722 231.339 699.257 229.789 698.208 227.971 L 668.11 175.979 C 664.323 169.44 666.557 161.07 673.096 157.283 C 679.636 153.492 688.008 155.73 691.794 162.27 L 720.29 211.502 L 750.479 231.625 C 754.082 234.024 756.329 237.982 756.556 242.303 C 756.774 246.622 754.943 250.793 751.607 253.549 L 711.937 286.386 C 709.423 288.465 706.324 289.528 703.206 289.528"/>
      <path id="path44" style="fill-opacity: 1; fill-rule: nonzero; stroke: none; fill: rgb(251, 251, 251);" d="M 933.075 289.528 L 857.822 289.528 C 854.031 289.528 850.418 287.96 847.825 285.194 L 812.925 247.888 L 744.619 256.581 C 737.137 257.546 730.267 252.231 729.317 244.734 C 728.367 237.239 733.662 230.39 741.165 229.436 L 816.419 219.858 C 820.764 219.311 825.139 220.879 828.138 224.084 L 863.76 262.164 L 933.075 262.164 C 940.628 262.164 946.755 268.289 946.755 275.847 C 946.755 283.404 940.628 289.528 933.075 289.528"/>
      <path id="path46" style="fill-opacity: 1; fill-rule: nonzero; stroke: none; fill: rgb(251, 251, 251);" d="M 902.224 198.576 C 902.224 216.315 887.842 230.694 870.106 230.694 C 852.358 230.694 837.976 216.315 837.976 198.576 C 837.976 180.836 852.358 166.457 870.106 166.457 C 887.842 166.457 902.224 180.836 902.224 198.576"/>
    </g>
    <g transform="matrix(1, 0, 0, 1, 6.450406, 0.716712)">
      <title>streaks</title>
      <line x1="652.42" y1="410.311" x2="745.336" y2="410.311" style="stroke-linecap: round; stroke: rgb(255, 255, 255); stroke-width: 4.53816; fill: rgb(251, 251, 251);"/>
      <line x1="582.081" y1="383.078" x2="702.43" y2="383.078" style="stroke-linecap: round; stroke: rgb(255, 255, 255); stroke-width: 4.53816; fill: rgb(251, 251, 251);"/>
      <line x1="478.513" y1="141.037" x2="611.881" y2="141.037" style="stroke-linecap: round; stroke: rgb(255, 255, 255); stroke-width: 4.53816; fill: rgb(251, 251, 251);"/>
      <line x1="431.303" y1="321.439" x2="524.219" y2="321.439" style="stroke-linecap: round; stroke: rgb(255, 255, 255); stroke-width: 4.53816; fill: rgb(251, 251, 251);"/>
      <line x1="440.431" y1="252.155" x2="610.037" y2="252.155" style="stroke-linecap: round; stroke: rgb(255, 255, 255); stroke-width: 4.53816; fill: rgb(251, 251, 251);"/>
      <line x1="419.359" y1="285.927" x2="539.708" y2="285.927" style="stroke-linecap: round; stroke: rgb(255, 255, 255); stroke-width: 4.53816; fill: rgb(251, 251, 251);"/>
      <line x1="528.099" y1="176.711" x2="654.493" y2="177.176" style="stroke-linecap: round; stroke: rgb(255, 255, 255); stroke-width: 4.53816; fill: rgb(251, 251, 251);"/>
      <line x1="485.052" y1="214.244" x2="589.592" y2="214.244" style="stroke-linecap: round; stroke: rgb(255, 255, 255); stroke-width: 4.53816; fill: rgb(251, 251, 251);"/>
      <line x1="471.091" y1="352.976" x2="550.389" y2="353.693" style="stroke-linecap: round; stroke: rgb(255, 255, 255); stroke-width: 4.53816; fill: rgb(251, 251, 251);"/>
    </g>
  </g>
</svg>